<svg xmlns="http://www.w3.org/2000/svg" viewBox="0 0 177 177.28"><title>mlx</title><polygon points="19.01 111.37 0 130.44 0.02 177 19 177 19.01 111.37" style="fill:#231f20"/><polygon points="131 66.29 89.04 108.25 47 66.22 47 177.23 88.97 135.22 131 177.28 131 66.29" style="fill:#231f20"/><polygon points="158 177 177 177 177 130.41 158 111.43 158 177" style="fill:#231f20"/><polygon points="130.73 0 88.51 41.88 46.29 0 0 0 0 46.65 19 65.7 19 38.39 38.8 18.59 89.03 68.82 139.23 18.63 159.03 38.43 159 38.45 159 65.27 177 46.28 177 0 130.73 0" style="fill:#231f20"/></svg>