<?xml version="1.0" standalone="no"?>
<!DOCTYPE svg PUBLIC "-//W3C//DTD SVG 20010904//EN"
 "http://www.w3.org/TR/2001/REC-SVG-20010904/DTD/svg10.dtd">
<svg version="1.0" xmlns="http://www.w3.org/2000/svg"
 width="700.000000pt" height="700.000000pt" viewBox="0 0 700.000000 700.000000"
 preserveAspectRatio="xMidYMid meet">
<metadata>
Created by potrace 1.11, written by Peter Selinger 2001-2013
</metadata>
<g transform="translate(0.000000,700.000000) scale(0.100000,-0.100000)"
fill="#000000" stroke="none">
<path d="M0 6079 l0 -922 375 -376 375 -375 0 539 0 539 389 388 c214 213 392
388 395 388 4 0 452 -445 997 -988 l990 -989 979 977 c539 537 986 982 994
989 13 11 73 -44 406 -377 l390 -389 0 -529 1 -529 66 70 c103 110 368 389
474 500 53 55 112 118 132 140 l37 39 0 913 0 913 -916 0 -915 0 -147 -146
c-708 -704 -1515 -1499 -1522 -1499 -7 0 -813 795 -1540 1518 l-128 127 -916
0 -916 0 0 -921z"/>
<path d="M1860 4035 c-1 -1700 1 -4019 3 -4022 2 -1 375 369 829 823 l826 825
831 -830 831 -830 0 2191 0 2191 -826 -824 c-454 -453 -827 -826 -830 -829 -3
-2 -378 369 -834 825 l-830 830 0 -350z"/>
<path d="M372 2223 l-372 -375 2 -917 3 -916 373 -3 372 -2 0 1295 c0 712 -1
1295 -2 1294 -2 0 -171 -169 -376 -376z"/>
<path d="M6250 1300 l0 -1290 375 0 375 0 0 920 0 921 -371 369 c-204 204
-373 370 -375 370 -2 0 -4 -580 -4 -1290z"/>
</g>
</svg>
